<?xml version="1.0" standalone="no"?>
<!DOCTYPE svg PUBLIC "-//W3C//DTD SVG 20010904//EN"
 "http://www.w3.org/TR/2001/REC-SVG-20010904/DTD/svg10.dtd">
<svg version="1.0" xmlns="http://www.w3.org/2000/svg"
 width="1029.000000pt" height="1280.000000pt" viewBox="0 0 1029.000000 1280.000000"
 preserveAspectRatio="xMidYMid meet">
<metadata>
Created by potrace 1.15, written by Peter Selinger 2001-2017
</metadata>
<g transform="translate(0.000000,1280.000000) scale(0.100000,-0.100000)"
fill="#000000" stroke="none">
<path d="M5913 12780 c-25 -10 -43 -39 -43 -69 0 -19 -1 -19 -25 4 -75 76
-235 -51 -184 -147 8 -16 7 -29 -6 -59 -11 -24 -16 -51 -12 -72 7 -42 -4 -55
-42 -49 -29 4 -29 4 -15 38 21 51 17 88 -13 124 -25 31 -29 32 -86 28 -47 -4
-64 -9 -78 -27 -17 -21 -20 -21 -41 -7 -28 20 -48 20 -90 2 -18 -8 -48 -20
-67 -27 -45 -17 -91 -57 -91 -79 0 -15 -7 -17 -42 -13 -39 4 -46 1 -77 -31
-35 -37 -44 -76 -28 -122 6 -18 3 -23 -17 -28 -13 -3 -38 -22 -55 -41 -43 -49
-43 -97 0 -141 27 -28 29 -32 11 -27 -12 3 -32 20 -46 38 -37 48 -74 60 -143
46 -74 -15 -103 -41 -103 -95 -1 -36 -2 -39 -14 -24 -21 28 -64 40 -102 28
-86 -29 -136 -147 -86 -203 14 -16 14 -19 -6 -33 -47 -33 -67 -111 -37 -150
20 -27 19 -34 -9 -34 -14 0 -38 -13 -54 -30 -27 -27 -30 -37 -37 -125 -6 -85
-5 -99 11 -116 16 -17 16 -21 3 -35 -12 -12 -21 -13 -43 -4 -92 35 -180 -15
-181 -104 0 -26 -10 -41 -55 -81 -72 -63 -98 -100 -116 -166 -9 -30 -23 -76
-32 -104 -8 -27 -17 -76 -19 -107 l-5 -58 -34 0 c-45 0 -101 -49 -110 -96 -17
-92 24 -174 87 -174 l32 0 -27 -25 c-14 -13 -26 -32 -27 -42 -5 -76 23 -124
99 -169 1 -1 -11 -15 -27 -33 -39 -42 -47 -81 -25 -127 23 -48 62 -70 157 -91
60 -13 77 -20 75 -32 -2 -12 -20 -17 -68 -21 -74 -6 -120 -27 -148 -67 -46
-66 -39 -109 26 -159 37 -28 51 -34 75 -28 19 4 27 2 23 -4 -10 -17 15 -72 39
-85 l24 -12 -25 -48 c-27 -55 -29 -73 -12 -129 18 -60 49 -88 100 -88 33 0 39
-3 30 -12 -24 -24 -2 -160 31 -196 9 -9 27 -30 40 -45 17 -22 34 -30 69 -34
74 -9 74 -43 0 -80 -28 -13 -44 -16 -63 -9 -38 13 -90 0 -129 -33 -32 -26 -35
-34 -34 -79 0 -32 7 -60 20 -79 11 -16 19 -45 19 -70 0 -42 -1 -43 -33 -43
-18 0 -43 -5 -55 -11 -33 -17 -77 -61 -77 -77 0 -11 -7 -13 -27 -8 -89 22
-118 25 -151 18 -25 -6 -45 -4 -62 5 -14 7 -32 13 -40 13 -8 0 -24 14 -35 30
-21 32 -78 60 -121 60 -15 0 -38 -12 -55 -30 -29 -28 -31 -29 -54 -14 -65 43
-140 6 -190 -92 -16 -33 -43 -73 -59 -91 -37 -41 -48 -119 -21 -159 21 -32 17
-37 -22 -22 -24 9 -33 20 -37 44 -14 70 -84 110 -141 79 -29 -15 -38 -15 -69
-4 -30 11 -43 10 -89 -4 -29 -9 -66 -30 -81 -46 -25 -26 -28 -36 -23 -70 5
-40 5 -40 -16 -26 -95 67 -231 -107 -159 -204 20 -27 20 -28 1 -40 -11 -6 -22
-25 -26 -42 l-6 -30 -21 21 c-61 56 -196 -17 -196 -105 0 -44 38 -94 96 -127
30 -16 54 -33 54 -37 0 -5 -35 -11 -77 -15 -55 -4 -86 -12 -105 -26 -26 -19
-30 -19 -51 -5 -13 8 -27 12 -31 8 -4 -5 -5 9 -1 29 7 34 4 41 -28 73 -32 32
-55 40 -97 36 -8 -1 -29 -17 -46 -35 -23 -24 -33 -46 -38 -86 -12 -88 -40
-107 -49 -35 -11 77 -59 125 -125 125 -48 0 -97 -60 -90 -111 4 -24 1 -29 -17
-29 -30 0 -52 -27 -60 -75 -4 -22 -13 -47 -20 -55 -7 -8 -16 -25 -19 -36 -6
-20 -10 -21 -35 -11 -38 14 -87 -14 -114 -66 -23 -45 -17 -78 22 -118 l29 -28
-23 -15 c-21 -14 -28 -14 -59 -1 -25 11 -42 12 -61 5 -23 -9 -25 -8 -25 20 0
38 -28 66 -80 80 -104 28 -178 -58 -145 -168 8 -26 15 -51 15 -55 0 -14 -60 4
-97 29 -68 46 -141 41 -183 -14 -11 -13 -20 -37 -20 -52 0 -15 -10 -36 -25
-50 -19 -18 -25 -34 -25 -66 0 -24 -5 -46 -10 -49 -16 -10 -50 -82 -50 -104 0
-11 -15 -34 -32 -50 -29 -27 -33 -38 -35 -85 0 -29 -6 -63 -12 -74 -6 -11 -11
-45 -11 -75 0 -41 5 -58 20 -72 l21 -19 -28 -22 c-24 -19 -28 -29 -27 -67 1
-51 34 -112 65 -122 14 -5 18 -12 13 -23 -3 -10 -9 -30 -13 -46 l-6 -28 -17
35 c-20 42 -75 64 -112 45 -38 -19 -76 -61 -76 -85 0 -20 -3 -21 -23 -14 -32
12 -67 -6 -92 -48 -11 -19 -36 -50 -56 -70 -49 -48 -73 -87 -65 -107 4 -11
-10 -31 -43 -63 -53 -49 -74 -101 -64 -152 6 -34 48 -79 73 -79 12 0 20 -11
24 -33 3 -18 17 -49 31 -67 14 -19 25 -43 25 -53 0 -17 20 -65 71 -169 6 -12
3 -19 -12 -23 -35 -11 -52 -50 -47 -107 7 -73 33 -92 112 -85 43 4 55 2 47 -6
-19 -19 -13 -106 10 -143 24 -39 52 -49 130 -47 l55 1 1 -66 c0 -53 4 -69 20
-82 19 -15 19 -16 1 -34 -21 -23 -23 -55 -5 -99 27 -63 77 -77 143 -38 19 12
37 21 40 21 2 0 4 -18 4 -40 0 -21 5 -50 11 -63 13 -29 58 -57 92 -57 31 0 88
19 108 37 15 12 18 11 27 -16 8 -23 7 -32 -3 -41 -8 -6 -21 -30 -30 -53 -21
-59 -9 -95 44 -131 43 -29 73 -35 104 -22 13 6 17 3 17 -12 0 -48 29 -73 102
-86 50 -9 93 14 109 58 l12 33 71 -3 c103 -6 107 -8 121 -40 6 -16 19 -35 28
-43 11 -8 17 -28 17 -52 0 -61 18 -86 88 -125 52 -29 72 -35 102 -31 32 4 37
2 33 -13 -7 -28 27 -89 59 -106 24 -12 36 -13 66 -3 20 6 46 20 57 30 19 17
21 17 45 -1 14 -11 37 -20 52 -20 22 0 31 -7 41 -32 8 -18 21 -39 30 -47 9 -7
21 -30 27 -51 14 -54 45 -88 85 -96 29 -5 35 -11 35 -31 0 -14 13 -37 29 -54
32 -32 81 -38 140 -18 25 9 36 8 56 -5 37 -24 82 -20 130 13 35 24 51 28 82
24 29 -4 57 2 110 25 l72 31 -30 -47 c-59 -92 -56 -167 8 -204 27 -16 37 -17
77 -7 28 7 55 22 69 39 21 24 26 26 42 14 42 -31 115 2 143 64 17 37 18 38 43
23 23 -13 33 -13 68 -1 22 7 48 22 58 32 23 25 20 84 -6 119 -28 38 -27 43 10
35 38 -7 91 14 113 45 22 33 20 87 -6 139 -20 39 -28 46 -60 50 -30 4 -36 8
-28 20 17 27 10 68 -17 101 -32 38 -86 62 -116 53 -35 -10 -77 -55 -87 -94
l-10 -36 -63 61 c-35 33 -69 70 -76 82 -6 13 -23 26 -36 29 -29 7 -29 4 -10
40 25 48 19 109 -14 146 -24 27 -36 32 -89 36 -55 4 -63 2 -86 -21 -24 -24
-25 -25 -32 -5 -11 36 -60 48 -137 33 -65 -12 -67 -12 -62 6 17 53 -52 142
-121 155 -47 9 -125 -25 -176 -76 l-36 -37 -24 34 c-27 42 -54 57 -128 73 -49
11 -57 16 -73 49 -12 28 -30 44 -66 61 -27 12 -57 20 -65 17 -11 -4 -18 1 -22
18 -9 35 -37 56 -83 62 -45 6 -63 32 -34 48 9 6 33 24 51 42 29 28 33 38 30
74 -4 56 -59 104 -119 104 -44 0 -47 6 -21 43 10 15 24 52 32 83 11 49 11 63
-3 104 -15 42 -15 50 -2 68 8 12 15 38 15 58 0 51 55 134 93 143 78 16 114 82
104 185 -4 39 -2 60 10 78 21 31 12 111 -21 176 l-23 48 51 -6 c67 -9 118 12
146 57 27 44 25 76 -5 120 -14 20 -25 44 -25 53 0 14 3 14 25 -1 21 -14 30
-14 55 -4 34 14 80 64 80 87 0 8 -7 30 -16 49 -13 27 -31 41 -85 66 -38 18
-68 36 -66 42 2 6 38 10 81 11 75 0 79 1 107 33 16 18 29 39 29 47 0 9 9 15
24 15 13 0 40 12 61 26 l38 25 25 -26 c47 -51 137 -71 178 -40 11 8 41 14 72
15 76 0 117 20 131 63 l12 35 24 -24 c13 -13 36 -24 50 -24 66 0 142 61 152
123 6 42 -19 88 -69 124 l-29 21 35 22 c20 12 36 27 36 33 1 7 11 -8 23 -32
25 -51 58 -78 104 -87 27 -5 37 0 77 36 30 28 46 51 46 66 0 28 30 33 51 8 7
-8 25 -22 40 -30 49 -25 159 11 159 53 0 10 8 8 29 -8 43 -32 91 -20 145 35
23 24 52 46 64 50 12 4 29 18 38 31 13 20 19 22 43 12 38 -14 73 -3 116 38 38
35 42 57 20 108 -10 24 25 23 67 -3 44 -26 56 -25 111 10 35 22 47 36 47 54 0
23 2 24 29 13 37 -14 75 4 103 48 15 23 18 42 14 80 -7 67 10 90 58 81 28 -5
36 -12 41 -36 8 -35 67 -90 98 -90 40 1 111 21 129 37 11 10 18 30 18 51 l0
36 20 -22 c53 -56 189 11 190 95 0 10 12 31 25 46 l25 28 31 -25 c17 -14 40
-26 52 -26 20 0 87 39 87 51 0 3 6 13 13 23 12 17 15 17 54 -3 34 -18 41 -28
45 -59 3 -21 19 -59 36 -86 17 -27 29 -53 26 -57 -11 -18 -31 -8 -60 30 -54
73 -131 99 -194 66 -39 -20 -50 -43 -50 -103 0 -35 5 -54 19 -66 18 -17 18
-18 -5 -41 -27 -27 -29 -42 -13 -98 21 -77 86 -98 165 -53 l40 23 -4 -54 c-4
-45 -1 -60 17 -83 l21 -29 -20 -33 c-11 -18 -20 -43 -20 -55 0 -15 -10 -28
-30 -38 -22 -12 -40 -36 -64 -88 -18 -40 -37 -83 -41 -96 l-7 -23 -17 24 c-28
43 -91 96 -122 103 -35 8 -84 -2 -99 -20 -6 -7 -36 -16 -67 -20 -62 -8 -113
-46 -113 -84 0 -12 -9 -38 -20 -58 -11 -21 -20 -43 -20 -50 0 -6 -13 -14 -30
-18 -40 -9 -90 -67 -90 -106 0 -26 -2 -29 -20 -19 -26 14 -95 2 -116 -21 -15
-16 -19 -17 -37 -4 -29 20 -50 19 -96 -5 -38 -19 -51 -36 -51 -67 0 -9 -16
-33 -35 -54 -19 -22 -35 -49 -35 -62 0 -41 -40 -65 -41 -24 0 12 -14 51 -32
87 -31 63 -33 65 -80 74 -36 6 -52 5 -70 -7 -21 -14 -25 -13 -44 9 -27 30 -75
32 -120 5 -33 -21 -50 -64 -38 -101 5 -15 0 -26 -19 -41 -13 -11 -27 -27 -30
-37 -4 -10 -20 -22 -38 -27 -17 -6 -40 -22 -51 -37 -19 -25 -19 -31 -7 -69 8
-22 23 -48 35 -57 20 -15 21 -18 6 -44 -9 -15 -19 -28 -23 -28 -3 0 -20 -12
-37 -26 -29 -24 -31 -30 -32 -97 l-2 -72 -7 66 c-15 125 -61 189 -137 189 -58
0 -118 -74 -111 -135 3 -29 1 -35 -15 -35 -10 0 -32 -13 -48 -29 -25 -25 -29
-37 -29 -84 0 -49 3 -58 31 -81 17 -14 40 -27 52 -28 38 -2 81 4 100 14 10 5
26 7 35 3 14 -5 10 -10 -18 -23 -50 -25 -68 -76 -48 -140 l16 -47 -44 -5 c-44
-6 -81 -32 -84 -60 -6 -46 2 -83 23 -104 20 -20 22 -26 10 -42 -17 -24 -17
-58 2 -94 19 -37 47 -52 93 -50 73 4 75 3 58 -22 -9 -12 -16 -29 -16 -36 0
-30 34 -84 63 -98 27 -14 33 -14 72 0 41 16 43 16 68 -6 l25 -22 -20 -27 c-17
-23 -18 -31 -9 -67 16 -58 73 -106 117 -99 32 5 33 4 28 -22 -11 -54 56 -151
103 -151 22 0 23 -3 18 -34 -11 -54 21 -100 113 -163 19 -12 43 -23 53 -23 11
0 19 -7 19 -17 1 -27 23 -51 63 -68 48 -20 69 -19 98 3 13 11 36 22 51 25 23
6 27 3 33 -22 3 -15 19 -41 35 -56 26 -25 33 -27 78 -20 30 4 57 14 68 26 15
16 20 17 33 6 9 -8 35 -19 58 -26 27 -7 56 -26 79 -51 37 -40 93 -66 119 -56
9 3 17 -4 21 -17 15 -51 88 -96 156 -97 36 0 98 39 98 61 0 5 7 25 15 45 14
35 14 35 40 18 23 -15 33 -16 74 -5 26 6 54 9 63 6 23 -9 84 20 103 48 23 36
25 129 2 155 -17 19 -17 21 14 51 28 29 31 36 26 78 -6 54 -32 93 -75 112 -23
11 -32 21 -32 39 0 15 -14 38 -37 59 -30 29 -42 34 -72 31 -27 -4 -49 3 -93
29 -31 18 -63 33 -72 33 -12 0 -16 11 -16 48 0 52 -24 97 -62 118 -13 8 -48
13 -79 14 -43 0 -60 5 -74 20 -22 24 -96 27 -137 6 -34 -18 -40 -11 -62 66
-10 35 -24 62 -36 68 -25 14 -25 34 0 70 15 21 30 29 66 33 58 6 84 31 95 93
7 37 6 53 -6 71 -9 13 -14 24 -13 24 2 1 26 3 53 4 93 4 178 84 160 152 -4 19
2 31 30 57 36 35 42 57 25 101 -12 33 1 26 43 -22 54 -62 128 -82 203 -57 32
11 49 12 63 4 41 -21 87 -12 140 30 57 45 71 66 71 107 0 23 6 31 30 40 30 11
69 76 70 116 0 11 8 17 24 17 15 0 33 11 45 26 18 23 21 24 21 7 0 -10 15 -33
33 -51 46 -45 80 -43 127 8 l37 41 7 -31 c3 -17 17 -42 31 -56 22 -22 33 -25
72 -22 38 3 51 -1 69 -19 13 -13 35 -23 51 -23 29 0 93 -33 93 -48 0 -20 -39
-42 -72 -42 -72 0 -148 -83 -127 -139 16 -42 58 -91 79 -91 15 0 17 -6 13 -41
-5 -34 -2 -44 23 -70 39 -41 80 -62 107 -53 30 9 73 51 87 85 18 42 30 26 30
-37 0 -63 6 -77 68 -157 33 -44 42 -61 33 -70 -8 -8 -16 -8 -25 -2 -86 65
-111 76 -164 72 -62 -4 -112 -43 -112 -86 0 -44 20 -100 41 -114 19 -14 19
-16 3 -44 -20 -34 -15 -64 18 -113 32 -47 68 -57 118 -32 36 18 41 18 53 3 22
-24 26 -70 10 -101 -19 -39 -19 -118 0 -137 14 -14 13 -18 -14 -40 -32 -28
-38 -70 -16 -133 15 -44 91 -103 124 -97 19 3 23 0 23 -20 0 -29 50 -83 78
-83 11 0 36 -14 57 -30 21 -17 58 -35 81 -41 l42 -11 -43 -41 c-24 -23 -46
-56 -50 -72 -4 -17 -19 -54 -32 -82 -21 -45 -29 -52 -47 -47 -30 7 -65 -8
-106 -47 l-35 -34 -6 42 c-6 50 -20 68 -73 95 -32 16 -52 19 -100 15 -55 -5
-64 -9 -93 -42 -31 -36 -32 -36 -62 -21 -37 20 -88 20 -121 1 -14 -8 -40 -14
-58 -15 -45 0 -89 -45 -98 -99 -4 -26 -19 -54 -41 -78 -19 -21 -32 -31 -29
-23 54 162 44 220 -42 257 -29 12 -36 11 -71 -7 -39 -20 -81 -63 -81 -84 0 -7
-21 -11 -52 -11 -46 0 -56 4 -79 30 -37 41 -95 42 -137 2 l-29 -28 -7 26 c-14
54 -113 69 -175 25 -14 -10 -43 -21 -63 -24 -22 -4 -45 -16 -55 -29 l-17 -23
-40 38 c-67 62 -92 66 -256 39 -30 -5 -64 -12 -75 -16 -15 -4 -26 1 -43 24
-17 24 -35 33 -82 43 l-60 12 0 42 c0 82 -86 131 -187 107 -30 -6 -42 -16 -56
-45 -18 -36 -18 -37 -37 -18 -44 44 -117 33 -176 -26 -39 -39 -45 -84 -19
-135 17 -32 76 -79 125 -99 16 -7 30 -15 30 -19 0 -4 -33 -7 -72 -7 -117 -1
-168 -39 -168 -125 0 -43 4 -51 43 -84 33 -29 49 -36 74 -33 31 4 32 2 35 -36
3 -34 9 -44 38 -63 19 -12 46 -30 60 -41 63 -48 130 -36 216 41 37 33 55 44
51 31 -24 -76 -36 -141 -30 -163 12 -53 32 -79 74 -95 41 -17 43 -17 89 7 36
19 51 22 65 14 41 -23 89 -26 125 -9 19 9 43 15 52 14 10 -2 27 2 38 8 17 9
26 7 47 -9 34 -27 124 -29 174 -3 35 18 37 18 60 -1 26 -21 79 -20 157 3 41
12 43 12 64 -15 67 -85 174 -53 199 61 11 50 13 52 35 42 13 -6 24 -17 24 -24
0 -7 8 -29 17 -49 20 -42 89 -81 125 -70 26 8 99 87 143 155 30 45 30 46 57
31 15 -9 32 -26 37 -38 14 -29 53 -45 105 -41 l41 3 -2 -40 c-6 -96 37 -145
127 -145 68 0 110 26 110 67 l0 26 23 -20 c35 -33 62 -36 111 -14 48 21 86 69
86 107 0 12 6 26 13 33 11 8 13 5 9 -19 -9 -65 62 -116 150 -108 57 6 84 27
99 79 12 37 12 37 85 48 44 6 82 7 92 2 37 -18 90 -31 133 -31 39 0 45 -3 47
-22 1 -13 7 -45 15 -73 10 -41 10 -55 0 -75 -24 -47 -16 -71 41 -125 l53 -51
-38 -16 c-70 -30 -102 -126 -60 -179 10 -13 26 -38 34 -56 9 -17 26 -34 37
-38 11 -4 27 -19 34 -33 21 -40 66 -82 88 -82 15 0 18 -5 14 -17 -43 -110 17
-211 118 -201 25 2 30 -1 28 -14 -3 -21 20 -69 42 -87 9 -8 16 -22 16 -32 0
-25 55 -86 85 -93 15 -4 27 -16 31 -31 9 -37 69 -85 105 -85 17 0 39 -5 49
-10 17 -9 18 -13 5 -44 -11 -25 -12 -47 -6 -79 8 -43 7 -45 -18 -50 -14 -3
-33 -1 -43 4 -9 5 -39 9 -66 9 -61 0 -94 -23 -110 -77 -13 -44 -8 -69 31 -152
24 -50 26 -81 6 -81 -4 0 -25 20 -46 45 -65 78 -157 95 -220 41 -23 -20 -27
-31 -25 -71 1 -39 -1 -46 -14 -41 -41 16 -64 16 -90 3 -48 -25 -84 -64 -84
-91 0 -23 -2 -24 -30 -15 -36 13 -78 -8 -104 -52 -10 -16 -21 -29 -25 -29 -5
0 -24 -11 -44 -24 l-36 -25 -44 49 c-24 27 -60 57 -80 66 -51 24 -107 6 -166
-52 -44 -44 -46 -53 -25 -108 5 -14 2 -15 -18 -7 -14 5 -52 6 -86 2 -69 -8
-112 -38 -112 -78 0 -21 -3 -22 -46 -16 -37 5 -51 2 -74 -15 -17 -13 -31 -18
-35 -12 -3 6 -15 10 -27 10 -11 0 -37 14 -58 30 -57 45 -90 48 -131 12 l-35
-30 -24 25 c-23 24 -28 25 -94 19 -86 -8 -100 -20 -193 -161 -83 -126 -84
-127 -62 -63 20 59 24 139 8 169 -8 15 -6 25 10 46 12 14 21 32 21 39 0 19 7
18 37 -6 14 -11 37 -20 50 -20 36 0 97 35 126 72 15 18 33 41 41 50 24 27 54
91 61 131 6 32 3 40 -23 66 l-29 30 30 12 c55 23 72 122 30 187 -18 30 -8 122
18 167 16 27 17 39 9 86 -6 30 -12 75 -15 100 -4 28 -19 65 -40 98 -22 32 -35
65 -35 85 0 17 -11 48 -25 69 -45 66 -118 86 -169 46 l-26 -20 0 21 c0 32 -26
75 -52 86 -42 19 -93 16 -113 -6 -17 -19 -18 -19 -37 5 -15 20 -28 25 -61 25
-23 -1 -53 -7 -67 -15 -26 -15 -74 -20 -68 -7 44 85 46 136 8 177 -28 30 -104
41 -137 20 -22 -15 -25 -14 -47 11 -20 23 -30 27 -71 26 -27 -1 -60 -10 -74
-19 -15 -10 -42 -18 -61 -19 -58 -3 -116 -20 -148 -43 l-31 -22 -63 42 c-87
58 -100 61 -141 40 l-35 -18 5 32 c16 96 -178 154 -233 69 -23 -35 -28 -101
-10 -159 31 -106 31 -104 -9 -57 -47 54 -112 92 -158 92 -40 0 -107 -49 -107
-78 0 -12 -4 -11 -22 6 -25 22 -100 52 -135 52 -13 0 -28 12 -42 35 -12 21
-36 42 -56 51 -31 12 -39 12 -77 -2 -24 -9 -52 -27 -64 -41 -17 -20 -26 -23
-50 -17 -37 10 -65 6 -85 -12 -13 -12 -18 -11 -38 2 -20 15 -48 18 -121 13
-14 0 -42 3 -63 9 -49 13 -100 -1 -126 -34 -17 -21 -25 -24 -54 -19 -45 9 -83
-11 -169 -89 -42 -38 -68 -69 -68 -82 0 -11 -12 -31 -26 -45 -73 -68 -71 -197
4 -228 15 -7 36 -26 46 -42 10 -17 31 -35 47 -41 l28 -10 -19 -36 c-11 -20
-20 -48 -20 -63 0 -17 -15 -41 -45 -72 l-45 -47 0 30 c0 32 -13 48 -84 105
-45 36 -80 47 -109 35 -34 -13 -87 -67 -87 -87 0 -15 -6 -18 -32 -16 -18 2
-40 -2 -48 -9 -66 -55 -80 -130 -31 -170 16 -14 34 -35 41 -47 10 -20 9 -25
-9 -38 -29 -20 -51 -65 -51 -104 0 -26 10 -42 49 -80 40 -39 60 -49 108 -59
36 -8 66 -21 79 -36 37 -39 108 -51 168 -28 14 5 15 2 6 -21 -15 -41 -12 -80
10 -107 19 -25 19 -25 -1 -44 -18 -16 -20 -27 -15 -69 8 -71 32 -99 89 -103
39 -3 46 -6 51 -29 12 -44 36 -71 94 -104 49 -28 61 -30 105 -24 28 3 58 10
68 15 13 8 26 1 57 -30 43 -44 82 -52 118 -25 24 18 54 18 78 0 29 -22 108
-19 139 5 21 17 27 18 34 7 17 -30 50 -38 100 -26 83 21 107 39 117 94 4 19
15 34 31 42 24 11 25 10 25 -22 0 -27 8 -41 42 -69 23 -20 49 -36 58 -36 9 0
25 -9 36 -21 17 -19 17 -22 3 -32 -46 -34 -44 -77 5 -189 19 -44 32 -57 64
-72 25 -11 55 -17 77 -14 32 4 38 1 51 -24 36 -70 148 -76 224 -12 23 20 30
34 30 60 0 34 1 35 22 20 34 -24 125 -21 168 5 19 12 39 28 45 35 14 19 67
-31 99 -94 30 -58 65 -89 112 -98 52 -10 116 39 128 99 8 38 38 106 48 107 4
0 12 -17 18 -39 14 -54 104 -146 157 -160 81 -22 139 30 164 148 6 28 15 51
20 51 5 0 20 -24 33 -53 30 -69 75 -107 126 -107 48 0 88 17 95 42 5 13 16 18
42 18 26 0 43 8 69 34 35 35 38 35 64 -17 17 -34 57 -57 98 -57 40 0 111 53
118 88 4 18 18 34 43 48 37 20 39 20 61 2 12 -10 32 -18 44 -18 11 -1 32 -7
46 -15 14 -8 42 -14 63 -15 49 0 82 32 92 90 6 37 9 41 17 24 15 -27 39 -44
63 -44 13 0 35 -16 55 -41 l33 -41 79 4 c69 3 82 6 99 27 10 13 19 36 19 52
l0 28 25 -24 c46 -47 131 -22 181 52 16 24 24 29 38 21 32 -18 126 26 126 59
0 11 5 11 29 -2 34 -17 67 -9 101 25 11 11 32 25 45 30 27 10 65 64 65 92 0
19 45 32 83 23 18 -5 30 -19 42 -52 19 -49 62 -83 105 -83 43 0 98 20 131 47
27 23 30 31 27 68 -3 41 -2 42 17 29 26 -18 69 -18 105 1 56 29 99 140 71 184
-6 9 -2 26 11 47 14 24 19 47 16 74 l-4 40 38 0 c21 0 52 -9 70 -20 54 -33
133 -24 165 19 6 9 14 36 18 61 5 34 15 52 40 72 36 30 50 83 33 127 -7 19 -4
29 13 47 18 20 21 32 17 88 -5 76 -25 106 -71 106 l-30 0 21 23 c26 27 28 70
7 121 l-15 37 25 -7 c45 -11 105 52 105 111 0 26 -54 76 -89 83 -30 7 -34 11
-35 41 -1 20 5 38 15 45 24 17 39 51 39 89 0 44 -35 77 -89 84 -44 6 -55 15
-64 51 -4 16 1 25 14 33 25 13 59 68 59 95 0 33 -58 104 -86 104 -21 0 -23 3
-14 26 23 60 0 132 -57 181 l-26 22 13 70 c11 57 11 73 0 86 -9 11 -9 15 -1
15 7 0 23 11 36 25 42 41 30 140 -19 163 -13 6 -28 30 -39 60 -19 56 -60 103
-107 124 -37 16 -41 48 -6 48 14 0 38 11 53 24 25 22 28 31 28 88 0 34 -4 79
-9 98 l-8 35 35 -49 c44 -61 82 -86 130 -86 56 0 87 35 87 98 0 26 -6 54 -12
61 -11 10 -6 11 25 6 31 -6 44 -3 69 15 28 21 30 21 43 3 8 -10 15 -21 15 -24
0 -3 17 -15 39 -27 56 -32 96 -29 134 10 20 19 44 32 64 34 18 2 42 8 53 14
15 8 30 8 56 -2 31 -11 40 -10 72 7 30 16 39 29 50 70 13 44 13 53 -1 77 -9
16 -13 28 -8 28 18 0 51 43 51 66 0 14 9 43 20 64 13 25 18 49 14 64 -5 21 -3
24 13 20 12 -4 32 5 51 21 l30 25 28 -25 c15 -14 37 -25 50 -25 16 0 28 -10
39 -30 24 -46 57 -63 106 -55 23 4 53 18 65 30 19 20 25 21 35 9 31 -38 136 4
153 61 4 17 15 42 22 57 8 14 14 37 14 50 0 29 28 58 57 58 38 0 88 43 91 78
4 37 1 37 62 15 39 -14 52 -15 76 -4 46 19 69 58 69 118 l0 53 35 -6 c19 -4
48 -17 63 -30 22 -18 41 -24 78 -24 60 0 92 26 103 85 4 22 21 54 37 73 33 38
37 53 24 105 -7 25 -5 27 22 27 76 0 125 142 71 205 -25 28 -89 48 -127 38
-20 -5 -23 -3 -18 11 4 10 7 59 7 111 l0 93 30 12 c45 19 80 65 80 106 0 44
-42 112 -75 120 -21 5 -23 9 -14 26 6 10 9 32 7 48 -2 21 5 37 25 58 15 16 30
44 33 63 4 29 0 40 -30 71 -20 22 -45 38 -57 38 -17 0 -20 4 -16 22 6 23 -8
57 -31 74 -12 9 -12 15 2 42 24 46 20 89 -9 118 -35 35 -84 54 -112 43 -21 -8
-23 -6 -23 20 0 55 -65 82 -174 74 l-66 -6 0 34 c0 19 -7 45 -16 57 -14 21
-14 24 5 48 12 15 21 32 21 38 0 29 -23 89 -41 107 -23 23 -86 26 -115 4 -28
-21 -32 -19 -39 23 -10 60 -26 91 -57 114 -25 17 -37 19 -76 13 -58 -9 -60 -9
-150 4 -52 7 -80 8 -93 0 -17 -9 -26 -4 -60 30 -33 35 -45 41 -79 41 -54 0
-117 -57 -154 -140 -15 -33 -29 -60 -31 -60 -1 0 1 17 6 38 24 104 -4 202 -67
228 -21 9 -48 13 -65 9 -34 -8 -88 -66 -95 -105 -5 -21 -13 -29 -34 -32 -26
-4 -27 -2 -19 20 24 64 6 122 -64 196 -34 36 -39 38 -87 34 -43 -2 -50 0 -50
15 0 29 -37 92 -62 105 -12 7 -36 12 -53 11 -16 -1 -47 8 -67 20 -21 13 -50
21 -65 20 -20 -2 -37 6 -60 29 -37 38 -74 41 -118 12 -17 -11 -47 -20 -68 -20
-23 0 -51 -8 -68 -21 l-29 -20 -39 22 c-23 12 -48 19 -60 16 -15 -4 -21 0 -21
12 0 32 -29 57 -98 85 -68 28 -70 28 -106 11 -20 -10 -45 -28 -56 -42 -18 -23
-20 -23 -49 -9 -16 9 -43 16 -58 16 -15 0 -41 9 -58 20 -16 11 -40 20 -52 20
-13 0 -30 13 -44 33 -12 17 -29 38 -37 45 -23 18 -112 15 -133 -4 -15 -14 -19
-13 -44 12 -24 24 -32 26 -78 21 -74 -9 -102 -40 -101 -110 1 -47 0 -49 -8
-20 -10 39 -51 63 -106 63 -45 0 -67 -19 -88 -77 -7 -21 -13 -32 -14 -25 0 22
-62 53 -101 50 -22 -1 -48 6 -70 19 -19 12 -46 25 -62 28 -68 17 -127 -49
-127 -145 0 -27 -3 -50 -6 -50 -3 0 -27 23 -53 50 -40 43 -52 50 -85 50 -20 0
-46 -4 -56 -10 -16 -9 -18 -6 -14 28 12 112 15 121 44 127 35 8 68 38 76 72 9
33 -21 91 -58 112 -34 20 -43 68 -32 162 5 42 3 48 -26 72 -44 37 -72 42 -150
25 -63 -14 -105 -10 -87 9 4 4 29 19 55 33 78 42 108 130 65 188 -18 25 -18
30 -6 61 18 43 11 71 -28 115 -29 34 -30 35 -9 46 15 8 26 8 41 -1 13 -6 46
-9 77 -7 43 4 59 10 70 26 l14 22 30 -25 c33 -28 45 -30 100 -13 70 21 102 79
79 142 -8 20 -6 27 14 40 24 16 25 15 31 -9 8 -33 59 -75 91 -75 42 0 113 47
119 78 5 25 9 27 49 24 39 -4 45 -1 71 33 16 20 44 55 62 77 44 55 44 96 -3
143 -20 19 -40 35 -45 35 -6 0 -10 4 -10 9 0 19 39 21 73 5 34 -16 38 -16 82
1 29 10 51 26 57 41 8 17 17 23 27 18 36 -14 47 -14 78 5 99 62 65 162 -70
202 -39 13 -66 26 -64 33 2 6 35 13 75 16 64 4 75 9 103 36 40 41 44 91 9 131
-14 16 -18 22 -10 16 8 -7 24 -13 37 -13 19 0 23 -5 23 -31 0 -17 4 -39 10
-49 14 -25 72 -60 102 -60 36 0 75 34 88 78 17 53 25 57 40 23 23 -57 109 -89
161 -60 28 15 79 98 79 128 0 14 -10 35 -22 48 l-21 23 27 0 c36 0 73 39 82
86 4 27 17 48 40 67 29 24 34 35 34 73 0 39 2 44 23 44 30 0 102 47 118 77 10
18 10 31 2 52 l-10 29 37 -5 c49 -7 75 9 101 59 15 30 19 51 15 82 -7 50 -7
49 0 108 4 34 0 65 -16 113 -21 62 -21 95 -2 95 5 0 26 -25 46 -55 66 -100
167 -124 236 -55 25 25 29 130 5 150 -12 10 -10 16 16 38 29 24 31 29 27 84
-3 42 -10 65 -25 80 l-21 21 34 32 c29 27 34 39 34 76 0 24 -7 58 -16 74 -9
17 -22 47 -29 68 -12 35 -12 38 3 31 10 -4 44 -9 77 -11 77 -5 118 18 136 75
10 36 9 44 -16 91 -17 30 -39 56 -56 63 -26 11 -28 16 -23 50 5 28 1 44 -14
64 -17 25 -18 31 -6 60 9 20 11 41 6 55 -6 16 -2 28 20 49 41 41 40 105 -2
145 -16 16 -33 43 -36 61 -3 18 -15 40 -25 50 -10 9 -19 26 -19 36 0 42 -27
74 -92 108 -35 19 -37 22 -27 47 14 37 5 67 -35 111 -18 20 -37 49 -42 64 -11
32 -83 110 -124 134 -16 10 -34 30 -40 46 -5 15 -15 41 -20 56 -12 32 -102 82
-147 82 -15 0 -35 8 -46 18 -14 12 -35 17 -75 16 -48 0 -59 3 -78 25 -12 14
-25 39 -28 54 -4 20 -16 32 -43 44 -48 19 -121 5 -166 -33 -21 -18 -33 -22
-40 -15 -8 8 2 24 32 55 54 55 65 111 32 164 -19 29 -25 32 -71 32 -37 0 -54
-5 -67 -19 -16 -19 -16 -19 -37 1 -20 19 -49 20 -86 4 -13 -5 -16 2 -16 36 0
24 -3 51 -8 61 -7 14 -3 17 17 17 33 0 76 36 94 77 13 33 12 37 -14 80 -15 25
-44 75 -63 111 -29 53 -44 71 -85 94 -27 15 -63 35 -78 43 -30 17 -123 38
-170 38 -28 0 -77 -37 -77 -58 0 -18 -47 -58 -59 -50 -6 3 -11 14 -11 23 0 9
-9 28 -19 41 -20 26 -96 40 -127 23 -14 -8 -25 -5 -48 15 -25 21 -36 24 -70
18 -58 -9 -84 -29 -92 -70 -4 -25 -12 -35 -24 -35 -10 0 -25 -2 -33 -6 -11 -4
-13 4 -9 44 4 44 1 52 -28 85 -31 35 -35 37 -94 36 -33 0 -71 -4 -83 -9z
m-948 -770 c10 -11 14 -20 9 -20 -5 0 -15 9 -22 20 -7 11 -11 20 -9 20 2 0 12
-9 22 -20z m2031 -17 c-8 -9 -46 18 -40 28 4 6 13 4 25 -7 11 -9 17 -19 15
-21z m-594 -674 c18 -8 60 -14 92 -14 53 0 62 -3 92 -32 38 -39 79 -43 134
-14 34 19 36 19 72 0 51 -26 84 -24 113 7 l23 25 4 -23 c2 -12 19 -33 38 -46
19 -13 37 -29 39 -35 2 -7 16 -28 31 -47 25 -32 27 -39 20 -91 -5 -32 -11 -66
-14 -77 -9 -29 11 -73 47 -103 l32 -27 -18 -36 c-9 -20 -17 -55 -17 -78 0 -34
6 -46 36 -74 24 -23 30 -34 19 -34 -25 0 -65 -46 -65 -75 0 -24 -1 -25 -16
-11 -8 9 -29 16 -46 16 -38 0 -105 -64 -114 -109 -5 -21 -12 -31 -25 -31 -32
0 -63 -21 -107 -74 -62 -72 -99 -135 -107 -178 l-7 -38 -72 -1 c-107 0 -136
-14 -168 -78 -34 -67 -35 -95 -4 -126 23 -23 23 -24 5 -30 -40 -13 -59 -46
-59 -103 l0 -54 -35 31 c-26 23 -46 31 -72 31 -26 0 -45 8 -64 26 -19 18 -41
27 -80 31 -49 5 -56 3 -79 -22 -21 -22 -25 -36 -25 -86 0 -32 -2 -59 -3 -59
-2 0 -16 8 -30 19 -42 28 -83 32 -129 11 -34 -15 -43 -26 -57 -66 -9 -26 -16
-56 -16 -66 0 -22 -27 -23 -54 -3 -37 28 -84 19 -127 -24 -22 -21 -39 -47 -39
-58 0 -16 -5 -19 -30 -15 -26 4 -37 -2 -71 -38 -37 -38 -40 -47 -37 -86 3 -40
1 -43 -25 -48 -16 -3 -42 -15 -57 -26 -28 -20 -31 -20 -61 -4 -24 12 -44 14
-78 9 -77 -13 -139 -6 -188 21 -25 13 -52 24 -60 24 -7 0 -16 8 -20 18 -3 9
-12 24 -20 33 -11 14 -9 16 18 16 91 0 117 173 31 205 -26 10 -29 16 -28 50 0
22 -6 44 -15 54 -13 12 -14 22 -7 42 16 43 -6 106 -47 138 -22 16 -35 35 -35
49 0 12 -9 34 -20 48 -11 14 -20 40 -20 60 0 20 -10 49 -25 71 -23 34 -24 39
-10 59 8 12 15 34 15 50 l0 29 30 -25 c55 -47 142 -44 174 5 20 31 31 102 18
124 -9 15 -5 21 19 31 34 14 49 47 49 105 0 33 -6 46 -35 73 l-34 33 37 -5
c32 -4 45 0 82 29 30 22 46 43 48 60 3 24 6 26 29 17 51 -19 123 49 123 116 0
60 -67 115 -139 115 -21 0 -32 6 -36 21 -12 38 16 40 65 5 25 -18 60 -36 78
-39 39 -8 96 13 110 40 17 32 21 89 8 114 -11 21 -9 27 11 46 13 12 23 31 23
43 0 23 59 90 80 90 7 0 28 9 47 21 18 12 41 18 49 15 13 -5 11 -11 -12 -39
-72 -86 -72 -182 1 -227 28 -17 39 -19 85 -10 55 10 90 33 90 57 0 10 7 9 28
-6 18 -13 51 -21 102 -25 66 -6 80 -4 114 16 22 13 48 35 59 50 16 22 18 31 9
57 -11 30 -10 31 10 20 11 -6 34 -8 51 -5 21 4 36 1 48 -10 26 -24 89 -29 132
-10 64 26 85 108 47 179 -11 20 -20 40 -20 44 1 5 7 -4 15 -18 8 -14 29 -32
47 -40z m-1681 -976 c14 -38 7 -48 -19 -26 -16 12 -21 24 -17 36 10 25 24 21
36 -10z m2289 -39 c0 -8 -4 -12 -10 -9 -5 3 -10 10 -10 16 0 5 5 9 10 9 6 0
10 -7 10 -16z m-586 -669 c-10 -34 -24 -41 -24 -13 0 15 -3 34 -6 43 -6 15 -4
15 14 4 15 -10 20 -20 16 -34z m503 -89 c-12 -18 -25 -32 -29 -29 -13 7 -9 18
12 41 32 34 42 26 17 -12z m-1067 -1371 c0 -10 -10 -15 -30 -15 -49 0 -34 24
18 29 6 0 12 -6 12 -14z m22 -1430 c-4 -23 -9 -25 -57 -25 -30 0 -60 -3 -69
-6 -9 -3 -16 -1 -16 5 0 6 12 11 28 12 15 0 45 9 67 19 52 24 53 24 47 -5z
m-4365 -22 c18 -34 18 -43 8 -78 l-13 -40 -1 40 c-1 22 -5 57 -10 78 -5 20 -8
37 -6 37 2 0 12 -17 22 -37z m4597 -192 c11 -18 -6 -39 -35 -43 -35 -5 -36 -1
-7 29 23 25 34 28 42 14z m-1560 -421 l31 0 -25 -24 c-14 -12 -42 -33 -62 -45
l-37 -22 5 38 c12 84 12 85 37 68 12 -8 35 -15 51 -15z m2742 -195 c22 -16 90
-20 99 -5 13 22 20 8 17 -34 -5 -52 9 -68 102 -122 62 -36 85 -41 117 -24 14
8 25 7 41 -5 13 -8 38 -15 58 -15 29 0 39 -6 53 -30 35 -59 96 -71 169 -34 25
13 28 12 40 -8 7 -13 13 -39 13 -59 1 -43 27 -87 58 -98 13 -5 39 -3 64 4 58
17 147 -7 166 -45 7 -14 22 -29 35 -35 24 -11 28 -20 12 -30 -18 -11 -11 -48
16 -86 26 -38 74 -66 93 -54 7 4 9 -8 5 -38 -6 -40 -3 -47 36 -92 23 -27 53
-57 66 -68 19 -15 22 -22 14 -37 -17 -32 -11 -77 14 -107 21 -24 32 -28 77
-28 36 0 55 5 62 16 8 13 13 12 34 -9 20 -20 31 -23 61 -19 27 5 43 1 61 -12
24 -18 24 -19 4 -25 -11 -4 -44 -31 -72 -61 -41 -44 -51 -60 -51 -89 0 -19 5
-38 10 -41 19 -12 10 -21 -34 -33 -87 -23 -109 -86 -60 -170 l27 -45 -38 6
c-25 4 -53 0 -86 -13 -27 -11 -58 -20 -69 -20 -27 0 -60 -47 -60 -87 0 -18 6
-49 14 -68 l15 -34 -40 15 c-24 10 -52 14 -72 10 -39 -7 -84 -47 -93 -81 l-6
-25 -19 24 c-11 14 -35 30 -54 36 -32 10 -40 9 -80 -14 -47 -28 -65 -51 -65
-85 0 -18 -3 -19 -26 -9 -37 17 -88 -13 -114 -68 -25 -51 -20 -80 21 -122 30
-31 44 -35 161 -48 52 -6 57 -8 47 -25 -5 -11 -20 -19 -32 -19 -39 0 -96 -20
-124 -44 l-27 -23 -29 28 c-16 16 -37 29 -47 29 -32 0 -92 -31 -97 -51 -6 -22
-4 -22 -39 -9 -23 9 -33 7 -66 -15 -67 -44 -67 -99 -1 -154 l35 -29 -30 -4
c-25 -3 -35 2 -56 29 -22 27 -34 33 -65 33 -37 0 -39 2 -45 39 -9 55 -66 105
-112 98 -54 -9 -106 -38 -118 -68 -10 -25 -13 -26 -31 -13 -24 18 -53 18 -89
-1 -29 -15 -30 -15 -66 20 -20 19 -41 35 -48 35 -7 0 -12 9 -12 20 0 27 -35
95 -75 145 -49 61 -53 73 -12 37 52 -44 131 -83 176 -85 75 -3 131 44 131 110
-1 43 -36 111 -64 124 -24 11 -24 13 -10 41 20 38 6 83 -41 128 -35 34 -69 42
-113 26 -22 -7 -23 -6 -12 15 8 15 11 47 7 95 l-5 72 30 13 c36 15 68 63 68
102 0 71 -55 147 -107 147 -32 0 -33 2 -33 39 0 24 -8 48 -22 66 -23 30 -110
75 -145 75 -18 0 -21 6 -20 35 1 48 -44 94 -99 102 -33 4 -45 1 -73 -23 -18
-15 -37 -38 -42 -51 -7 -19 -16 -23 -53 -23 -60 0 -64 12 -13 37 65 31 105 70
118 113 10 34 9 44 -9 81 l-22 43 22 23 c14 15 22 37 22 61 1 26 9 45 27 65
15 15 29 40 32 56 4 17 15 32 26 36 31 10 61 54 61 90 0 18 -11 48 -25 68 -13
20 -21 39 -16 41 4 3 50 0 102 -6 52 -6 123 -12 157 -12 58 -1 66 2 88 27 13
15 24 40 24 54 l0 26 21 -27 c47 -59 122 -53 190 15 32 32 39 46 39 78 0 50
-32 97 -95 139 -57 38 -64 48 -38 55 32 8 39 7 59 -8z m1522 -240 c-3 -3 -9 2
-12 12 -6 14 -5 15 5 6 7 -7 10 -15 7 -18z m76 -87 c17 -11 22 -17 11 -13 -11
4 -35 11 -52 17 -28 8 -33 14 -33 40 l0 31 22 -28 c12 -15 35 -36 52 -47z
m-339 -278 c3 -5 1 -10 -4 -10 -6 0 -11 5 -11 10 0 6 2 10 4 10 3 0 8 -4 11
-10z m-1591 -1165 c-16 -25 -30 -28 -72 -17 -36 11 -31 27 8 24 19 -1 42 2 50
8 26 17 31 11 14 -15z m1001 -606 c7 -11 -22 -49 -37 -49 -12 0 -10 34 4 48
15 15 25 15 33 1z m-4895 -57 c0 -15 -22 -31 -36 -25 -18 7 -5 33 17 33 10 0
19 -4 19 -8z m622 -2015 c-3 -30 2 -45 19 -63 l22 -24 -24 0 c-19 0 -28 9 -41
43 -26 61 -24 89 4 85 20 -3 23 -8 20 -41z m-976 -282 c4 -16 8 -51 9 -77 1
-39 -2 -48 -20 -56 -21 -10 -21 -8 -17 43 3 42 -1 65 -21 109 l-26 55 34 -22
c20 -13 36 -33 41 -52z m2512 -429 c23 -6 42 -13 42 -17 0 -9 -190 -4 -213 6
-23 10 -16 31 9 28 36 -5 65 8 76 32 l11 24 16 -32 c13 -25 25 -34 59 -41z
m1676 -211 c-6 -16 -24 -21 -24 -7 0 11 11 22 21 22 5 0 6 -7 3 -15z"/>
</g>
</svg>
