<?xml version='1.0' encoding='utf-8'?>
<svg xmlns="http://www.w3.org/2000/svg" width="2880pt" height="2160pt" version="1.1" viewBox="0 0 2880 2160"> <path d="m515.31 1448.5c0.544-0.2 1.092-0.65 1.416-1.34 0.325-0.69 0.415-1.62 0.076-2.56s-1.119-1.89-2.313-2.46c-1.193-0.56-2.803-0.71-4.438-0.13-1.634 0.59-3.278 1.94-4.253 4.01s-1.246 4.86-0.228 7.69c1.017 2.83 3.362 5.68 6.946 7.37 3.583 1.69 8.418 2.16 13.326 0.4 4.908-1.77 9.845-5.83 12.772-12.04 2.928-6.21 3.741-14.59 0.685-23.09-3.055-8.51-10.096-17.06-20.857-22.13-10.761-5.08-25.278-6.49-40.017-1.19-14.738 5.29-29.563 17.49-38.353 36.14-8.791 18.65-11.233 43.81-2.058 69.35 9.176 25.54 30.319 51.22 62.632 66.46 32.314 15.23 75.906 19.46 120.16 3.56 44.258-15.9 88.773-52.54 115.17-108.53 26.396-56 33.729-131.54 6.178-208.23-27.552-76.69-91.041-153.83-188.07-199.57-97.033-45.74-227.93-58.45-360.83-10.71" fill="none" stroke="#b85500" stroke-linejoin="round" stroke-width="9.7636"/> <path d="m107.36 1084s417.65-180.36 710.29-77.07c211.15 74.52 218.25 262.61 656.52 241.32 431.72-20.98 534.93 245 683.14 257.28" fill="none" stroke="#b85500" stroke-linejoin="round" stroke-width="9.7636"/> <path d="m60.18 1169.7s37.05-164.56 375.82-269.83c171.83-53.396 351.29-71.044 573.48-41.218 149.95 20.129 262.95 58.232 415.06 176.86 128.92 100.53 376.39 233.97 559.8 215.02 153.57-15.87 183.92-94.35 377.18-64.56 193.25 29.79 140.91 173.12 140.91 173.12" fill="none" stroke="#b85500" stroke-linejoin="round" stroke-width="9.7636"/> <path d="m58.433 1139.5s536.75-367.18 1011.7-206.6c474.91 160.58 504.32 552.45 738.51 641.24 226.19 85.75 400.31 10.33 525.95-126.97 144.01-157.37-170.97-322.1-183.49-74.27" fill="none" stroke="#b85500" stroke-linejoin="round" stroke-width="9.7636"/> <g fill="none" stroke="#b85500" stroke-linejoin="round" stroke-width="9.7636"> <path d="m2697.2 1367.6c0.01-0.01 0.02-0.02 0.02-0.05 0.01-0.02 0-0.05-0.02-0.08-0.03-0.03-0.07-0.05-0.13-0.06-0.06 0-0.13 0.01-0.21 0.07-0.07 0.06-0.14 0.17-0.15 0.32-0.02 0.15 0.03 0.35 0.18 0.53 0.16 0.19 0.43 0.37 0.81 0.4 0.39 0.04 0.9-0.07 1.38-0.46 0.48-0.4 0.93-1.1 1.02-2.09 0.1-0.99-0.18-2.29-1.2-3.52-1.01-1.24-2.8-2.39-5.35-2.64-2.55-0.24-5.88 0.47-9.05 3.08-3.16 2.61-6.13 7.2-6.75 13.74-0.63 6.53 1.21 15.1 7.9 23.22 6.69 8.11 18.48 15.73 35.25 17.34 16.78 1.61 38.76-3.11 59.58-20.29s40.39-47.43 44.51-90.47c4.13-43.04 20.1-120.29-21.01-176.04-74.42-100.94-166.98-137.58-277.93-135.89-103.59 1.583-121.47 14.497-349.4 116.17-173.63 77.45-336.02 43.8-474.8-39.86-229.25-138.19-351.12-226.12-627.32-287.85-218.66-48.87-435.21-53.307-660.74 79.252-167.46 98.427-111.32 170.8-344.63 248.56"/> <path d="m73.365 1098.3"/> </g> <path d="m1931.6 550.02c0.5-2.541 2.12-5.157 4.76-6.922s6.31-2.633 10.14-1.871c3.82 0.761 7.75 3.191 10.41 7.167 2.65 3.975 3.96 9.497 2.81 15.247-1.14 5.751-4.8 11.673-10.78 15.667-5.98 3.993-14.29 5.958-22.94 4.235s-17.56-7.224-23.57-16.222c-6-8.997-8.96-21.495-6.37-34.509 2.6-13.015 10.87-26.418 24.41-35.457 13.53-9.039 32.33-13.486 51.91-9.586s39.75 16.35 53.35 36.714c13.59 20.364 20.28 48.649 14.42 78.105-5.87 29.456-24.6 59.79-55.24 80.248-30.63 20.458-73.18 30.523-117.5 21.696-44.31-8.828-89.95-37.005-120.73-83.094-30.77-46.089-45.91-110.11-32.63-176.77 13.28-66.667 55.67-135.32 125-181.62 69.34-46.302 165.65-69.081 265.94-49.103 100.3 19.979 203.58 83.751 273.24 188.06s103.93 249.2 73.87 400.09c0 0-78.43 319.75-426.87 259.01-268.38-46.78-277.11-115.52-643.88-263.6-440.24-177.74-642.37-244.36-925.11-105.31-169.46 83.339-225.76 316.09-366.13 451.09" fill="none" stroke="#b85500" stroke-linejoin="round" stroke-width="9.7636"/> <g fill="#b85500"> <path d="m2193.1 1042.2c0-16 18.66-28.97 41.68-28.97s41.68 12.97 41.68 28.97c0 16.01-18.66 28.98-41.68 28.98s-41.68-12.97-41.68-28.98z"/> <path d="m2273.1 1037.6-5.69-0.45 5.79-186.8s58.45 7.334 64.54 73.17c0 0-23.1-62.972-53.57-51.383l-11.07 165.46z"/> </g> <path d="m1373.5 1274.9c6.19-14.76 28.42-19.5 49.65-10.6 21.22 8.91 33.41 28.09 27.22 42.85-6.19 14.75-28.41 19.5-49.64 10.6-21.23-8.91-33.42-28.09-27.23-42.85zm75.58 26.65-5.07-2.62 77.58-170.02s51.07 29.37 31.22 92.44c0 0 3.05-67-29.53-68.1l-74.2 148.3z" fill="#b85500"/> <path d="m1376.5 716.57c0 18.693-21.36 33.846-47.71 33.846s-47.71-15.153-47.71-33.846c0-18.694 21.36-33.847 47.71-33.847s47.71 15.153 47.71 33.847zm-95.73-0.677 15.5 209.63" fill="none" stroke="#b85500" stroke-linejoin="round" stroke-width="9.7636"/> <g fill="#b85500"> <path d="m1541.5 983.98c0-16.004 18.66-28.977 41.68-28.977s41.68 12.973 41.68 28.977c0 16.003-18.66 28.981-41.68 28.981s-41.68-12.978-41.68-28.981zm124.56 1.548c0-16.003 18.66-28.976 41.68-28.976s41.68 12.973 41.68 28.976-18.66 28.973-41.68 28.973-41.68-12.97-41.68-28.973zm-59.36-8.856-7.39-212.42 146.94-26.725-2.78 246.15-11.72-1.379-1.58-180.67-118.51 15.653 1.97-11.972 116.66-17.13-0.5-32.176-116 20.444 10.8 204.01-17.89-3.794z"/> <path d="m1808.3 1494.6c0-16 18.66-28.98 41.68-28.98s41.68 12.98 41.68 28.98-18.66 28.98-41.68 28.98-41.68-12.98-41.68-28.98zm124.56 1.55c0-16 18.66-28.98 41.68-28.98s41.68 12.98 41.68 28.98-18.66 28.98-41.68 28.98-41.68-12.98-41.68-28.98zm-59.36-8.86-7.39-212.41 146.95-26.73-2.79 246.16-11.72-1.38-1.58-180.68-118.51 15.66 1.97-11.97 116.66-17.13-0.5-32.18-116 20.44 10.8 204.02-17.89-3.8z"/> <path d="m647.28 497.61s-85.742 21.886-19.893 235.46c0 0-184.86 318.89 137.88 277.29 0 0 92.603 187.43-25.591 93.8 0 0 36.88-24.26 30.347-50.86 0 0-50.676-58.99-64.614 43.45 0 0 162.23 154.64 121.44-37.89-7.893-37.25-14.266-61.059-19.362-75.868 36.359-38.37 157.03-186.17-135.62-192.22l-10.748-44.808s73.232-154.13-13.836-248.36zm-0.859 68.839c1.295-0.35 2.661-0.543 4.116-0.601 0 0 59.391 3.869-9.475 157.91 0 0-34.811-146.48 5.359-157.31zm-0.25 209.7 23.364 43.559s-57.339 103.23 39.436 122.67c0 0-68.351-66.583-10.79-82.096l64.966 119.73s-256 68.743-116.98-203.86zm67.334 74.786c194.26-20.509 72.009 121.94 72.009 121.94l-72.009-121.94z"/> <path d="m929.52 793.1c6.19-14.758 28.417-19.503 49.645-10.599 21.225 8.904 33.425 28.086 27.235 42.843-6.19 14.758-28.422 19.504-49.65 10.6-21.229-8.904-33.42-28.086-27.23-42.844zm75.58 26.645-5.07-2.612 77.59-170.02s51.06 29.369 31.21 92.44c0 0 3.06-67.007-29.53-68.108l-74.2 148.3z"/> </g> </svg>